<svg width="40" height="44" viewBox="0 0 40 44" fill="none" xmlns="http://www.w3.org/2000/svg">
<path fill-rule="evenodd" clip-rule="evenodd" d="M22.9061 0C23.5643 0 24.2883 0.0373024 24.5045 0.093256C24.7302 0.139884 25.2661 0.242465 25.7081 0.326396C26.15 0.410326 26.8834 0.606164 27.3535 0.764699C27.8142 0.913908 28.6229 1.24963 29.14 1.51075C29.6571 1.76254 30.4 2.19151 30.7855 2.45263C31.171 2.71375 31.7821 3.16138 32.1488 3.4598C32.5061 3.74889 33.1925 4.38303 33.6532 4.85864C34.1234 5.34357 34.7251 6.00568 34.9884 6.34141C35.2517 6.67713 35.75 7.38587 36.1073 7.92676C36.4646 8.46764 37.0194 9.42818 37.3391 10.0716C37.6682 10.7151 37.9314 11.3119 37.9314 11.4052C37.9314 11.4891 37.9878 11.6197 38.0443 11.685C38.1101 11.7503 38.411 12.5336 38.7118 13.4289C39.0221 14.3241 39.276 15.2287 39.2948 15.8069L35.2987 15.8255C33.0985 15.8442 31.2556 15.8162 31.2086 15.7789C31.1522 15.7416 30.9265 15.1448 30.6914 14.4547C30.4564 13.7366 29.9862 12.6082 29.5913 11.8435C29.2152 11.0975 28.6229 10.0996 28.275 9.61469C27.9177 9.12976 27.2407 8.32776 26.7517 7.84283C26.2628 7.34857 25.5482 6.52792 25.1533 6.01501C24.7678 5.5021 23.9122 4.55089 23.2634 3.90742C22.6146 3.25463 21.6649 2.41533 21.1478 2.03298C20.6307 1.65996 19.9819 1.22165 19.7092 1.07244C19.4365 0.913908 19.2109 0.746048 19.2015 0.690094C19.1921 0.624815 19.4929 0.512908 19.8879 0.428977C20.2734 0.345047 20.7999 0.242465 21.0632 0.205163C21.3359 0.167861 21.5803 0.111907 21.6273 0.0746048C21.6649 0.0279768 22.2385 0 22.9061 0V0ZM40 24.1533L39.9436 24.7874C39.9154 25.1325 39.812 25.9345 39.7085 26.5779C39.6051 27.2214 39.417 28.1633 39.2854 28.6762C39.1538 29.1891 38.9187 29.9818 38.7777 30.4481C38.6272 30.9144 38.3545 31.6417 38.1853 32.0801C38.0067 32.5184 37.7058 33.1898 37.5271 33.5721C37.3485 33.9545 36.9912 34.6259 36.7373 35.0642C36.4834 35.5025 36.0603 36.174 35.8064 36.5563C35.5432 36.9387 35.0072 37.6288 34.6217 38.0951C34.2362 38.5613 33.5216 39.3074 33.0327 39.7737C32.5437 40.2399 31.7351 40.8927 31.2462 41.2378C30.7667 41.5828 29.9204 42.0957 29.3751 42.3755C28.8297 42.6553 27.9459 43.0283 27.4005 43.2148C26.8552 43.392 26.056 43.6065 25.614 43.6904C25.1721 43.7743 24.5986 43.8863 24.3447 43.9422C24.0814 43.9888 23.4044 44.0168 22.8403 43.9888C22.2667 43.9609 21.5333 43.8956 21.1948 43.8396C20.8563 43.7837 20.2734 43.6624 19.8973 43.5785C19.5212 43.4853 19.2203 43.364 19.2203 43.3174C19.2203 43.2708 19.5964 42.991 20.0477 42.7112C20.499 42.4315 21.27 41.8813 21.759 41.4896C22.2479 41.0979 23.0283 40.3798 23.4984 39.9042C23.9592 39.4193 24.6644 38.5986 25.0499 38.0951C25.4354 37.5822 26.1782 36.7242 26.6953 36.1833C27.2125 35.6424 27.8424 34.9337 28.0963 34.598C28.3408 34.2622 28.7921 33.5908 29.0742 33.1059C29.3657 32.6209 29.8076 31.7537 30.0521 31.1941C30.3059 30.6346 30.6538 29.702 30.8325 29.1425C31.0111 28.583 31.2368 27.7436 31.3402 27.2774C31.4436 26.8111 31.5941 25.9625 31.6693 25.3843C31.7539 24.8154 31.8197 24.2932 31.8197 24.2465C31.8197 24.1813 33.2489 24.1533 40 24.1533ZM13.8608 2.06096C14.472 2.05163 15.2712 2.10758 15.6943 2.19151C16.108 2.26612 16.738 2.42465 17.1047 2.55521C17.462 2.67645 18.0167 2.89093 18.327 3.02149C18.6373 3.16138 19.3143 3.55305 19.8314 3.8981C20.3486 4.24315 21.1478 4.87729 21.6085 5.31559C22.0693 5.75389 22.6992 6.42534 23.0095 6.80768C23.3198 7.19003 23.8275 7.88945 24.1378 8.34641C24.4481 8.80336 25.0029 9.81985 25.379 10.5846C25.7645 11.3586 26.2064 12.3657 26.3662 12.8227C26.5261 13.2796 26.8082 14.1842 26.9868 14.8277C27.1655 15.4712 27.3065 16.0587 27.3065 16.1333C27.3065 16.2452 27.0338 16.2825 25.7363 16.3478C24.8618 16.3851 23.348 16.3851 20.5554 16.2732L20.3674 15.5737C20.264 15.1914 20.0195 14.4547 19.8314 13.9418C19.634 13.4289 19.2861 12.6269 19.0604 12.1699C18.8254 11.7129 18.4022 10.9762 18.1108 10.5379C17.8193 10.0996 17.2175 9.37222 16.7756 8.91527C16.3337 8.46764 15.7225 7.90811 15.4122 7.68429C15.1019 7.4698 14.519 7.13408 14.1147 6.95689C13.7198 6.77038 13.0898 6.55589 12.7325 6.48129C12.3658 6.40668 11.7734 6.34141 11.4161 6.34141C11.0494 6.34141 10.4571 6.40668 10.0998 6.48129C9.73305 6.55589 9.11248 6.77038 8.70817 6.95689C8.31326 7.13408 7.7303 7.4698 7.42001 7.68429C7.10973 7.90811 6.49856 8.46764 6.05664 8.91527C5.61472 9.37222 5.01295 10.0996 4.72147 10.5379C4.42999 10.9762 3.93165 11.8528 3.63077 12.4963C3.32048 13.1398 2.93498 14.063 2.77513 14.5479C2.60589 15.0329 2.38963 15.7696 2.2862 16.1799C2.18277 16.5902 2.01352 17.4295 1.91009 18.045C1.75965 18.8843 1.70324 19.7236 1.66563 21.4022C1.62802 23.1275 1.64682 23.9202 1.76905 24.8807C1.85368 25.5521 2.02292 26.6059 2.15456 27.2121C2.2862 27.8089 2.56827 28.8068 2.77513 29.4223C2.98199 30.0377 3.3769 31.0076 3.64957 31.5671C3.93165 32.1267 4.41118 32.966 4.72147 33.4323C5.04116 33.8985 5.53949 34.542 5.84038 34.8684C6.14126 35.2041 6.70542 35.717 7.09092 36.0248C7.47643 36.3232 8.13461 36.7428 8.54832 36.9387C8.96204 37.1345 9.5544 37.3677 9.86469 37.4423C10.1844 37.5262 10.8332 37.5915 11.3691 37.5915C12.0273 37.5915 12.535 37.5355 13.0616 37.3956C13.4753 37.2931 14.1335 37.0319 14.519 36.8268C14.9045 36.6123 15.4968 36.2299 15.8259 35.9595C16.1644 35.6984 16.6816 35.2135 16.9825 34.8777C17.2927 34.542 17.8005 33.8985 18.1108 33.4323C18.421 32.966 18.8818 32.1733 19.1356 31.6604C19.3801 31.1475 19.7186 30.3735 19.8785 29.9352C20.0383 29.4969 20.2922 28.6762 20.4426 28.1167C20.593 27.5571 20.7999 26.5686 20.9033 25.9252C21.0068 25.2817 21.1008 24.5916 21.1478 24.0134L24.5045 23.9948C27.8142 23.9668 27.8707 23.9668 27.8707 24.1533C27.8707 24.2559 27.8048 24.8341 27.7296 25.4402C27.6544 26.0371 27.4757 27.0536 27.3441 27.697C27.2125 28.3405 26.9586 29.3383 26.78 29.9165C26.6013 30.4854 26.291 31.3806 26.0842 31.8935C25.8773 32.4064 25.5106 33.2178 25.2755 33.6934C25.0311 34.1597 24.5986 34.9244 24.3071 35.3906C24.025 35.8569 23.4608 36.6309 23.0659 37.1159C22.6616 37.6008 22.0881 38.2349 21.7872 38.524C21.4863 38.8131 20.988 39.2514 20.6777 39.4939C20.3674 39.7364 19.8879 40.0814 19.6152 40.2493C19.3519 40.4265 18.8254 40.7156 18.4681 40.8927C18.1014 41.0699 17.4808 41.331 17.0765 41.4616C16.6816 41.5922 15.9952 41.76 15.5533 41.8346C15.1113 41.9092 14.3685 41.9652 13.9078 41.9652C13.4377 41.9652 12.7889 41.9186 12.4504 41.8719C12.1119 41.816 11.4819 41.6668 11.04 41.5362C10.5981 41.4056 9.9023 41.1352 9.48858 40.9394C9.07487 40.7435 8.67056 40.529 8.59534 40.4638C8.52012 40.3892 8.20043 40.184 7.89014 40.0068C7.54225 39.8016 6.81825 39.1768 6.00022 38.3748C4.95653 37.349 4.50521 36.8175 3.89404 35.9035C3.46152 35.2601 2.82214 34.1503 2.47425 33.4323C2.12635 32.7142 1.59981 31.4366 1.31773 30.588C1.03565 29.7393 0.697159 28.5456 0.574925 27.9302C0.443288 27.3147 0.255237 26.3262 0.161211 25.7386C0.0295744 24.8807 -0.00803601 24.1253 0.00136659 22.0084C0.00136659 19.7703 0.038977 19.1548 0.208224 18.0917C0.311652 17.4016 0.490301 16.4317 0.59373 15.9468C0.697159 15.4618 0.913418 14.6225 1.08266 14.0816C1.24251 13.5408 1.52459 12.7201 1.70324 12.2632C1.89129 11.8062 2.26739 10.9669 2.55887 10.398C2.84095 9.82918 3.28287 9.0365 3.54614 8.62618C3.80001 8.21585 4.20433 7.62834 4.43939 7.32059C4.67446 7.01285 5.14459 6.45331 5.48308 6.07096C5.82157 5.68861 6.42334 5.11975 6.80884 4.80268C7.19435 4.48561 7.80552 4.02866 8.17222 3.80484C8.52952 3.5717 9.09367 3.24531 9.41336 3.08677C9.74245 2.92824 10.3348 2.68577 10.7297 2.55521C11.134 2.41533 11.7546 2.25679 12.1213 2.19151C12.4786 2.12624 13.2684 2.06096 13.8608 2.06096ZM12.2153 7.8335C12.3188 7.8335 12.7795 8.02001 13.2496 8.24383C13.7103 8.46764 14.1711 8.71011 14.2745 8.77539C14.4343 8.89662 14.3967 8.95257 13.7103 9.65199C13.2966 10.0623 12.7325 10.7151 12.441 11.0975C12.1495 11.4798 11.7076 12.1326 11.4631 12.5429C11.2093 12.9533 10.8614 13.606 10.6827 13.9884C10.5041 14.3707 10.2408 15.0235 10.0809 15.4339C9.93051 15.8442 9.70484 16.5809 9.58261 17.0658C9.46038 17.5508 9.29113 18.3528 9.20651 18.8377C9.12188 19.3226 9.02786 20.4137 8.99965 21.2624C8.97144 22.1483 8.99025 23.258 9.04666 23.8735C9.11248 24.461 9.24412 25.3843 9.35695 25.9252C9.46038 26.466 9.71425 27.4079 9.9117 28.0234C10.1186 28.6389 10.5041 29.6088 10.7861 30.1683C11.0682 30.7278 11.4537 31.4459 11.6512 31.7537C11.8486 32.0614 12.2718 32.6489 12.6008 33.0592C12.9205 33.4696 13.4659 34.0757 13.8044 34.4114C14.3027 34.9057 14.3967 35.0456 14.3027 35.1482C14.2369 35.2135 13.889 35.4186 13.5317 35.6051C13.165 35.7823 12.7043 35.9875 12.1213 36.1926L11.67 35.6984C11.4161 35.4279 10.8708 34.7005 10.4571 34.0851C10.0433 33.4696 9.41336 32.3785 9.06547 31.6604C8.70817 30.9423 8.22864 29.786 7.99357 29.0959C7.76791 28.4058 7.46703 27.3333 7.34479 26.7178C7.21316 26.1023 7.05331 25.1605 6.97809 24.6196C6.91227 24.0787 6.85586 22.9037 6.85586 22.0084C6.85586 21.1131 6.91227 19.9381 6.97809 19.3972C7.05331 18.8564 7.21316 17.9145 7.34479 17.299C7.46703 16.6835 7.76791 15.611 7.99357 14.921C8.21923 14.2309 8.72697 13.0372 9.10308 12.2632C9.48858 11.4985 10.0621 10.4633 10.3912 9.97839C10.7203 9.49346 11.2281 8.81269 11.5101 8.46764C11.8392 8.06664 12.0931 7.8335 12.2153 7.8335Z" fill="url(#paint0_linear_17305_13994)"/>
<defs>
<linearGradient id="paint0_linear_17305_13994" x1="0" y1="22" x2="40" y2="22" gradientUnits="userSpaceOnUse">
<stop stop-color="#6C63FF"/>
<stop offset="1" stop-color="#1E293B"/>
</linearGradient>
</defs>
</svg>
